<svg xmlns="http://www.w3.org/2000/svg" xmlns:xlink="http://www.w3.org/1999/xlink" width="500" zoomAndPan="magnify" viewBox="0 0 375 149.999998" height="200" preserveAspectRatio="xMidYMid meet" version="1.0"><defs><g/><clipPath id="5a5dac622a"><path d="M 11.25 31.652344 L 84.75 31.652344 L 84.75 117.902344 L 11.25 117.902344 Z M 11.25 31.652344 " clip-rule="nonzero"/></clipPath></defs><rect x="-37.5" width="450" fill="#ffffff" y="-15" height="179.999997" fill-opacity="1"/><rect x="-37.5" width="450" fill="#ffffff" y="-15" height="179.999997" fill-opacity="1"/><rect x="-37.5" width="450" fill="#ffffff" y="-15" height="179.999997" fill-opacity="1"/><g clip-path="url(#5a5dac622a)"><path fill="#000000" d="M 65.929688 60.449219 L 61.042969 60.449219 L 63.945312 57.082031 C 64.613281 57.242188 65.304688 57.328125 66.023438 57.328125 C 70.878906 57.328125 74.84375 53.378906 74.875 48.515625 C 74.90625 43.621094 70.953125 39.617188 66.023438 39.59375 C 61.167969 39.59375 57.195312 43.546875 57.171875 48.40625 C 57.164062 49.660156 57.417969 50.902344 57.914062 52.039062 L 50.773438 60.449219 L 47.644531 60.449219 L 38.71875 49.394531 C 39.84375 47.578125 40.457031 45.476562 40.480469 43.320312 C 40.5 40.222656 39.3125 37.300781 37.140625 35.105469 C 34.96875 32.894531 32.074219 31.675781 28.90625 31.652344 C 22.566406 31.652344 17.375 36.824219 17.332031 43.183594 C 17.308594 46.285156 18.496094 49.203125 20.671875 51.414062 C 22.84375 53.621094 25.746094 54.84375 28.90625 54.863281 C 29.730469 54.863281 30.558594 54.777344 31.355469 54.609375 L 36.050781 60.46875 L 30.0625 60.46875 C 21.59375 60.449219 11.269531 63.007812 11.269531 80.539062 L 11.269531 99.066406 C 11.269531 109.429688 19.726562 117.902344 30.070312 117.902344 L 65.929688 117.902344 C 76.261719 117.902344 84.730469 109.429688 84.730469 99.066406 L 84.730469 80.539062 C 84.730469 64.960938 74.398438 60.449219 65.929688 60.449219 Z M 67.816406 107.019531 L 28.183594 107.019531 C 25.269531 107.019531 22.8125 104.554688 22.8125 101.636719 L 22.832031 80.539062 L 22.832031 77.320312 C 22.9375 74.484375 25.34375 72.128906 28.183594 72.128906 L 67.816406 72.128906 C 70.730469 72.128906 73.1875 74.59375 73.1875 77.511719 L 73.167969 98.621094 L 73.1875 98.621094 L 73.1875 101.636719 C 73.1875 104.554688 70.730469 107.019531 67.816406 107.019531 Z M 67.816406 107.019531 " fill-opacity="1" fill-rule="nonzero"/></g><path fill="#ff0a54" d="M 40.003906 95.816406 C 39.980469 92.398438 39.960938 86.792969 39.9375 83.375 C 39.917969 79.953125 42.472656 78.542969 45.398438 80.230469 C 48.3125 81.929688 53.1875 84.699219 56.101562 86.398438 C 59.019531 88.097656 59.082031 90.890625 56.175781 92.621094 C 53.273438 94.351562 48.367188 97.175781 45.460938 98.898438 C 42.566406 100.628906 40.011719 99.238281 40.003906 95.816406 Z M 40.003906 95.816406 " fill-opacity="1" fill-rule="nonzero"/><g fill="#ff0a54" fill-opacity="1"><g transform="translate(91.027827, 100.258244)"><g><path d="M 17.765625 0.734375 C 13.078125 0.734375 9.304688 -0.453125 6.453125 -2.828125 C 3.609375 -5.210938 2.148438 -8.5625 2.078125 -12.875 L 11.8125 -12.875 C 11.882812 -11.070312 12.414062 -9.675781 13.40625 -8.6875 C 14.40625 -7.695312 15.84375 -7.203125 17.71875 -7.203125 C 19.476562 -7.203125 20.804688 -7.535156 21.703125 -8.203125 C 22.609375 -8.878906 23.0625 -9.800781 23.0625 -10.96875 C 23.0625 -12.238281 22.476562 -13.21875 21.3125 -13.90625 C 20.144531 -14.601562 18.304688 -15.347656 15.796875 -16.140625 C 13.171875 -16.960938 11.003906 -17.785156 9.296875 -18.609375 C 7.597656 -19.429688 6.140625 -20.664062 4.921875 -22.3125 C 3.703125 -23.96875 3.09375 -26.144531 3.09375 -28.84375 C 3.09375 -31.019531 3.703125 -32.960938 4.921875 -34.671875 C 6.140625 -36.378906 7.832031 -37.707031 10 -38.65625 C 12.175781 -39.613281 14.671875 -40.09375 17.484375 -40.09375 C 20.035156 -40.09375 22.414062 -39.625 24.625 -38.6875 C 26.84375 -37.75 28.644531 -36.3125 30.03125 -34.375 C 31.414062 -32.445312 32.128906 -30.082031 32.171875 -27.28125 L 22.609375 -27.28125 C 22.566406 -28.664062 22.125 -29.828125 21.28125 -30.765625 C 20.4375 -31.703125 19.171875 -32.171875 17.484375 -32.171875 C 16.023438 -32.171875 14.890625 -31.847656 14.078125 -31.203125 C 13.273438 -30.566406 12.875 -29.707031 12.875 -28.625 C 12.875 -27.351562 13.453125 -26.378906 14.609375 -25.703125 C 15.773438 -25.023438 17.597656 -24.289062 20.078125 -23.5 C 22.703125 -22.71875 24.863281 -21.910156 26.5625 -21.078125 C 28.269531 -20.253906 29.742188 -19.007812 30.984375 -17.34375 C 32.222656 -15.675781 32.84375 -13.472656 32.84375 -10.734375 C 32.84375 -8.640625 32.25 -6.71875 31.0625 -4.96875 C 29.882812 -3.226562 28.160156 -1.84375 25.890625 -0.8125 C 23.628906 0.21875 20.921875 0.734375 17.765625 0.734375 Z M 17.765625 0.734375 "/></g></g></g><g fill="#ff0a54" fill-opacity="1"><g transform="translate(123.748825, 100.258244)"><g><path d="M 21.8125 -20.96875 L 15.125 -20.96875 L 15.125 -12.765625 C 15.125 -11.378906 15.507812 -10.289062 16.28125 -9.5 C 17.050781 -8.71875 18.128906 -8.328125 19.515625 -8.328125 L 21.8125 -8.328125 L 21.8125 0 L 16.640625 0 C 13.160156 0 10.472656 -0.972656 8.578125 -2.921875 C 6.679688 -4.867188 5.734375 -7.566406 5.734375 -11.015625 L 5.734375 -20.96875 L 0.953125 -20.96875 L 0.953125 -29.234375 L 5.734375 -29.234375 L 5.734375 -37 L 15.125 -37 L 15.125 -29.234375 L 21.8125 -29.234375 Z M 21.8125 -20.96875 "/></g></g></g><g fill="#ff0a54" fill-opacity="1"><g transform="translate(145.731339, 100.258244)"><g><path d="M 23.5625 -29.578125 L 23.5625 -21.25 L 19.796875 -21.25 C 17.878906 -21.25 16.253906 -20.601562 14.921875 -19.3125 C 13.597656 -18.019531 12.9375 -16.363281 12.9375 -14.34375 L 12.9375 0 L 3.546875 0 L 3.546875 -29.234375 L 12.265625 -29.234375 L 12.265625 -25.875 C 14.515625 -28.34375 17.507812 -29.578125 21.25 -29.578125 Z M 23.5625 -29.578125 "/></g></g></g><g fill="#ff0a54" fill-opacity="1"><g transform="translate(167.657624, 100.258244)"><g><path d="M 17.3125 -29.96875 C 20.09375 -29.96875 22.671875 -29.332031 25.046875 -28.0625 C 27.429688 -26.789062 29.34375 -25 30.78125 -22.6875 C 32.226562 -20.382812 32.953125 -17.769531 32.953125 -14.84375 C 32.953125 -13.976562 32.859375 -12.984375 32.671875 -11.859375 L 10.96875 -11.859375 C 11.34375 -10.097656 12.09375 -8.726562 13.21875 -7.75 C 14.34375 -6.78125 15.75 -6.296875 17.4375 -6.296875 C 18.78125 -6.296875 19.910156 -6.539062 20.828125 -7.03125 C 21.753906 -7.519531 22.535156 -8.25 23.171875 -9.21875 L 32.109375 -9.21875 C 31.023438 -6.257812 29.207031 -3.859375 26.65625 -2.015625 C 24.101562 -0.179688 20.988281 0.734375 17.3125 0.734375 C 14.507812 0.734375 11.90625 0.0976562 9.5 -1.171875 C 7.101562 -2.453125 5.179688 -4.253906 3.734375 -6.578125 C 2.296875 -8.898438 1.578125 -11.582031 1.578125 -14.625 C 1.578125 -17.65625 2.296875 -20.332031 3.734375 -22.65625 C 5.179688 -24.988281 7.101562 -26.789062 9.5 -28.0625 C 11.90625 -29.332031 14.507812 -29.96875 17.3125 -29.96875 Z M 17.3125 -22.890625 C 15.738281 -22.890625 14.398438 -22.445312 13.296875 -21.5625 C 12.191406 -20.6875 11.429688 -19.40625 11.015625 -17.71875 L 23.734375 -17.71875 C 23.429688 -19.25 22.734375 -20.492188 21.640625 -21.453125 C 20.554688 -22.410156 19.113281 -22.890625 17.3125 -22.890625 Z M 17.3125 -22.890625 "/></g></g></g><g fill="#ff0a54" fill-opacity="1"><g transform="translate(199.985072, 100.258244)"><g><path d="M 25.25 -29.234375 L 33.90625 -29.234375 L 33.90625 0 L 25.25 0 L 25.25 -2.875 C 23.070312 -0.46875 20.015625 0.734375 16.078125 0.734375 C 13.679688 0.734375 11.375 0.109375 9.15625 -1.140625 C 6.945312 -2.398438 5.148438 -4.203125 3.765625 -6.546875 C 2.378906 -8.890625 1.6875 -11.582031 1.6875 -14.625 C 1.6875 -17.65625 2.378906 -20.34375 3.765625 -22.6875 C 5.148438 -25.03125 6.945312 -26.828125 9.15625 -28.078125 C 11.375 -29.335938 13.679688 -29.96875 16.078125 -29.96875 C 19.984375 -29.96875 23.039062 -28.769531 25.25 -26.375 Z M 18 -7.59375 C 20.019531 -7.59375 21.695312 -8.253906 23.03125 -9.578125 C 24.363281 -10.910156 25.03125 -12.59375 25.03125 -14.625 C 25.03125 -16.644531 24.363281 -18.320312 23.03125 -19.65625 C 21.695312 -20.988281 20.019531 -21.65625 18 -21.65625 C 15.96875 -21.65625 14.285156 -20.988281 12.953125 -19.65625 C 11.628906 -18.320312 10.96875 -16.644531 10.96875 -14.625 C 10.96875 -12.59375 11.628906 -10.910156 12.953125 -9.578125 C 14.285156 -8.253906 15.96875 -7.59375 18 -7.59375 Z M 18 -7.59375 "/></g></g></g><g fill="#ff0a54" fill-opacity="1"><g transform="translate(235.292309, 100.258244)"><g><path d="M 38.515625 -29.96875 C 40.691406 -29.96875 42.59375 -29.460938 44.21875 -28.453125 C 45.851562 -27.441406 47.117188 -26.015625 48.015625 -24.171875 C 48.921875 -22.335938 49.375 -20.222656 49.375 -17.828125 L 49.375 0 L 39.984375 0 L 39.984375 -16.203125 C 39.984375 -17.878906 39.597656 -19.195312 38.828125 -20.15625 C 38.054688 -21.113281 37.015625 -21.59375 35.703125 -21.59375 C 34.429688 -21.59375 33.351562 -21.101562 32.46875 -20.125 C 31.59375 -19.15625 31.15625 -17.847656 31.15625 -16.203125 L 31.15625 0 L 21.765625 0 L 21.765625 -16.203125 C 21.765625 -17.878906 21.378906 -19.195312 20.609375 -20.15625 C 19.835938 -21.113281 18.796875 -21.59375 17.484375 -21.59375 C 16.210938 -21.59375 15.132812 -21.101562 14.25 -20.125 C 13.375 -19.15625 12.9375 -17.847656 12.9375 -16.203125 L 12.9375 0 L 3.546875 0 L 3.546875 -29.234375 L 12.09375 -29.234375 L 12.09375 -26.265625 C 14.300781 -28.734375 17.035156 -29.96875 20.296875 -29.96875 C 22.097656 -29.96875 23.773438 -29.535156 25.328125 -28.671875 C 26.890625 -27.816406 28.097656 -26.65625 28.953125 -25.1875 C 31.546875 -28.375 34.734375 -29.96875 38.515625 -29.96875 Z M 38.515625 -29.96875 "/></g></g></g><g fill="#000000" fill-opacity="1"><g transform="translate(275.116833, 100.258244)"><g><path d="M 27.328125 -14.625 L 42.6875 -39.359375 L 51.390625 -39.359375 L 49.484375 0 L 39.984375 0 L 41.15625 -21.984375 L 27.5 0 L 22.265625 0 L 17.15625 -22.046875 L 9.734375 0 L 0 0 L 13.390625 -39.359375 L 21.59375 -39.359375 Z M 27.328125 -14.625 "/></g></g></g><g fill="#000000" fill-opacity="1"><g transform="translate(328.021702, 100.258244)"><g><path d="M 18.609375 -29.96875 C 21.421875 -29.96875 23.914062 -29.359375 26.09375 -28.140625 C 28.269531 -26.921875 29.957031 -25.257812 31.15625 -23.15625 C 32.351562 -21.0625 32.953125 -18.757812 32.953125 -16.25 C 32.953125 -14.71875 32.742188 -13.253906 32.328125 -11.859375 L 10.578125 -11.859375 C 10.796875 -10.066406 11.429688 -8.691406 12.484375 -7.734375 C 13.535156 -6.773438 14.921875 -6.296875 16.640625 -6.296875 C 17.953125 -6.296875 19.113281 -6.578125 20.125 -7.140625 C 21.144531 -7.703125 21.878906 -8.394531 22.328125 -9.21875 L 31.546875 -9.21875 C 30.347656 -6.375 28.390625 -4.003906 25.671875 -2.109375 C 22.953125 -0.210938 19.71875 0.734375 15.96875 0.734375 C 13.226562 0.734375 10.757812 0.15625 8.5625 -1 C 6.375 -2.164062 4.648438 -3.789062 3.390625 -5.875 C 2.140625 -7.957031 1.515625 -10.3125 1.515625 -12.9375 C 1.515625 -15.894531 2.242188 -18.675781 3.703125 -21.28125 C 5.171875 -23.882812 7.207031 -25.984375 9.8125 -27.578125 C 12.414062 -29.171875 15.347656 -29.96875 18.609375 -29.96875 Z M 18.28125 -22.890625 C 16.625 -22.890625 15.207031 -22.421875 14.03125 -21.484375 C 12.851562 -20.546875 11.960938 -19.289062 11.359375 -17.71875 L 24.1875 -17.71875 C 24.070312 -19.25 23.503906 -20.492188 22.484375 -21.453125 C 21.472656 -22.410156 20.070312 -22.890625 18.28125 -22.890625 Z M 18.28125 -22.890625 "/></g></g></g><g fill="#000000" fill-opacity="1"><g transform="translate(101.020521, 115.68261)"><g><path d="M 7.34375 -2.5 C 7.34375 -1.6875 7.109375 -1.066406 6.640625 -0.640625 C 6.085938 -0.160156 5.210938 0.078125 4.015625 0.078125 C 3.054688 0.078125 2.242188 -0.101562 1.578125 -0.46875 C 0.921875 -0.832031 0.53125 -1.410156 0.40625 -2.203125 L 2.671875 -2.203125 C 2.722656 -1.679688 3.175781 -1.421875 4.03125 -1.421875 C 4.539062 -1.421875 4.894531 -1.472656 5.09375 -1.578125 C 5.289062 -1.691406 5.390625 -1.890625 5.390625 -2.171875 C 5.390625 -2.253906 5.359375 -2.328125 5.296875 -2.390625 C 5.242188 -2.460938 5.160156 -2.523438 5.046875 -2.578125 C 4.929688 -2.628906 4.816406 -2.675781 4.703125 -2.71875 C 4.585938 -2.757812 4.4375 -2.800781 4.25 -2.84375 C 4.070312 -2.882812 3.921875 -2.914062 3.796875 -2.9375 C 3.671875 -2.96875 3.507812 -3 3.3125 -3.03125 C 3.113281 -3.0625 2.976562 -3.085938 2.90625 -3.109375 C 2.457031 -3.179688 2.054688 -3.300781 1.703125 -3.46875 C 0.847656 -3.832031 0.421875 -4.394531 0.421875 -5.15625 C 0.421875 -5.925781 0.65625 -6.515625 1.125 -6.921875 C 1.644531 -7.367188 2.507812 -7.59375 3.71875 -7.59375 C 4.65625 -7.59375 5.460938 -7.390625 6.140625 -6.984375 C 6.828125 -6.578125 7.171875 -6.007812 7.171875 -5.28125 L 4.890625 -5.28125 C 4.847656 -5.820312 4.460938 -6.09375 3.734375 -6.09375 C 3.316406 -6.09375 2.984375 -6.035156 2.734375 -5.921875 C 2.492188 -5.804688 2.375 -5.679688 2.375 -5.546875 C 2.375 -5.441406 2.410156 -5.34375 2.484375 -5.25 C 2.554688 -5.15625 2.671875 -5.070312 2.828125 -5 C 2.984375 -4.925781 3.128906 -4.863281 3.265625 -4.8125 C 3.398438 -4.757812 3.585938 -4.707031 3.828125 -4.65625 C 4.066406 -4.601562 4.242188 -4.566406 4.359375 -4.546875 C 4.472656 -4.523438 4.640625 -4.488281 4.859375 -4.4375 C 5.285156 -4.351562 5.6875 -4.238281 6.0625 -4.09375 C 6.914062 -3.75 7.34375 -3.21875 7.34375 -2.5 Z M 7.34375 -2.5 "/></g></g></g><g fill="#000000" fill-opacity="1"><g transform="translate(111.663139, 115.68261)"><g><path d="M 4.265625 0 L 2.3125 0 L 2.3125 -5.953125 L 0.15625 -5.953125 L 0.15625 -7.453125 L 6.421875 -7.453125 L 6.421875 -5.953125 L 4.265625 -5.953125 Z M 4.265625 0 "/></g></g></g><g fill="#000000" fill-opacity="1"><g transform="translate(121.122203, 115.68261)"><g><path d="M 7.0625 -4.8125 C 7.0625 -4.382812 6.945312 -3.957031 6.71875 -3.53125 C 6.488281 -3.101562 6.160156 -2.757812 5.734375 -2.5 L 6.921875 0 L 4.75 0 L 3.734375 -2.171875 L 2.5625 -2.171875 L 2.5625 0 L 0.59375 0 L 0.59375 -7.453125 L 4.0625 -7.453125 C 5.050781 -7.453125 5.796875 -7.195312 6.296875 -6.6875 C 6.804688 -6.1875 7.0625 -5.5625 7.0625 -4.8125 Z M 2.5625 -3.65625 L 3.96875 -3.65625 C 4.300781 -3.65625 4.570312 -3.757812 4.78125 -3.96875 C 5 -4.175781 5.109375 -4.453125 5.109375 -4.796875 C 5.109375 -5.148438 5 -5.429688 4.78125 -5.640625 C 4.570312 -5.847656 4.300781 -5.953125 3.96875 -5.953125 L 2.5625 -5.953125 Z M 2.5625 -3.65625 "/></g></g></g><g fill="#000000" fill-opacity="1"><g transform="translate(131.344851, 115.68261)"><g><path d="M 0.59375 -7.453125 L 6.21875 -7.453125 L 6.21875 -5.953125 L 2.5625 -5.953125 L 2.5625 -4.453125 L 5.328125 -4.453125 L 5.328125 -2.921875 L 2.5625 -2.921875 L 2.5625 -1.5 L 6.21875 -1.5 L 6.21875 0 L 0.59375 0 Z M 0.59375 -7.453125 "/></g></g></g><g fill="#000000" fill-opacity="1"><g transform="translate(140.854828, 115.68261)"><g><path d="M 7.9375 0 L 5.859375 0 L 5.328125 -1.515625 L 2.6875 -1.515625 L 2.171875 0 L 0.09375 0 L 2.53125 -7.453125 L 5.484375 -7.453125 Z M 5 -3.0625 L 4.015625 -6.109375 L 3.015625 -3.0625 Z M 5 -3.0625 "/></g></g></g><g fill="#000000" fill-opacity="1"><g transform="translate(151.764697, 115.68261)"><g><path d="M 4.484375 0 L 2.796875 -5.828125 L 2.4375 0 L 0.46875 0 L 0.703125 -3.734375 C 0.796875 -5.242188 0.867188 -6.484375 0.921875 -7.453125 L 4.234375 -7.453125 L 5.40625 -3.078125 L 6.578125 -7.453125 L 9.90625 -7.453125 C 9.957031 -6.484375 10.03125 -5.242188 10.125 -3.734375 L 10.359375 0 L 8.390625 0 L 8.015625 -5.828125 L 6.34375 0 Z M 4.484375 0 "/></g></g></g><g fill="#000000" fill-opacity="1"><g transform="translate(165.474363, 115.68261)"><g><path d="M 0.609375 -7.453125 L 2.578125 -7.453125 L 2.578125 0 L 0.609375 0 Z M 0.609375 -7.453125 "/></g></g></g><g fill="#000000" fill-opacity="1"><g transform="translate(171.548221, 115.68261)"><g><path d="M 2.5625 -4.53125 L 2.5625 0 L 0.59375 0 L 0.59375 -7.453125 L 2.796875 -7.453125 L 5.75 -3.03125 L 5.75 -7.453125 L 7.703125 -7.453125 L 7.703125 0 L 5.546875 0 Z M 2.5625 -4.53125 "/></g></g></g><g fill="#000000" fill-opacity="1"><g transform="translate(182.738071, 115.68261)"><g><path d="M 4.234375 0.078125 C 2.929688 0.078125 1.921875 -0.347656 1.203125 -1.203125 C 0.628906 -1.898438 0.34375 -2.71875 0.34375 -3.65625 C 0.34375 -4.664062 0.628906 -5.53125 1.203125 -6.25 C 1.910156 -7.144531 2.914062 -7.59375 4.21875 -7.59375 C 5.238281 -7.59375 6.066406 -7.351562 6.703125 -6.875 C 7.347656 -6.394531 7.734375 -5.753906 7.859375 -4.953125 L 5.859375 -4.953125 C 5.859375 -5.316406 5.710938 -5.597656 5.421875 -5.796875 C 5.128906 -5.992188 4.769531 -6.09375 4.34375 -6.09375 C 3.71875 -6.09375 3.222656 -5.863281 2.859375 -5.40625 C 2.492188 -4.957031 2.3125 -4.375 2.3125 -3.65625 C 2.3125 -2.988281 2.484375 -2.445312 2.828125 -2.03125 C 3.171875 -1.625 3.632812 -1.421875 4.21875 -1.421875 C 4.757812 -1.421875 5.175781 -1.507812 5.46875 -1.6875 C 5.757812 -1.863281 5.976562 -2.160156 6.125 -2.578125 L 4.796875 -2.578125 L 4.796875 -4.03125 L 7.8125 -4.03125 L 7.8125 0 L 6.375 0 L 6.328125 -0.609375 C 5.796875 -0.148438 5.097656 0.078125 4.234375 0.078125 Z M 4.234375 0.078125 "/></g></g></g><g fill="#000000" fill-opacity="1"><g transform="translate(194.016997, 115.68261)"><g/></g></g><g fill="#000000" fill-opacity="1"><g transform="translate(199.314555, 115.68261)"><g><path d="M 7.609375 -1.859375 L 8.578125 -7.453125 L 10.59375 -7.453125 L 9.0625 0 L 6.375 0 L 5.328125 -4.0625 L 4.296875 0 L 1.625 0 L 0.09375 -7.453125 L 2.09375 -7.453125 L 3.078125 -1.859375 L 4.4375 -7.453125 L 6.171875 -7.453125 Z M 7.609375 -1.859375 "/></g></g></g><g fill="#000000" fill-opacity="1"><g transform="translate(212.884237, 115.68261)"><g><path d="M 0.609375 -7.453125 L 2.578125 -7.453125 L 2.578125 0 L 0.609375 0 Z M 0.609375 -7.453125 "/></g></g></g><g fill="#000000" fill-opacity="1"><g transform="translate(218.958095, 115.68261)"><g><path d="M 4.265625 0 L 2.3125 0 L 2.3125 -5.953125 L 0.15625 -5.953125 L 0.15625 -7.453125 L 6.421875 -7.453125 L 6.421875 -5.953125 L 4.265625 -5.953125 Z M 4.265625 0 "/></g></g></g><g fill="#000000" fill-opacity="1"><g transform="translate(228.417157, 115.68261)"><g><path d="M 2.5625 0 L 0.59375 0 L 0.59375 -7.453125 L 2.5625 -7.453125 L 2.5625 -4.359375 L 5.265625 -4.359375 L 5.265625 -7.453125 L 7.21875 -7.453125 L 7.21875 0 L 5.265625 0 L 5.265625 -2.8125 L 2.5625 -2.8125 Z M 2.5625 0 "/></g></g></g><g fill="#000000" fill-opacity="1"><g transform="translate(239.123404, 115.68261)"><g/></g></g><g fill="#000000" fill-opacity="1"><g transform="translate(244.420962, 115.68261)"><g><path d="M 0.59375 -7.453125 L 6.21875 -7.453125 L 6.21875 -5.953125 L 2.5625 -5.953125 L 2.5625 -4.453125 L 5.328125 -4.453125 L 5.328125 -2.921875 L 2.5625 -2.921875 L 2.5625 -1.5 L 6.21875 -1.5 L 6.21875 0 L 0.59375 0 Z M 0.59375 -7.453125 "/></g></g></g><g fill="#000000" fill-opacity="1"><g transform="translate(253.930939, 115.68261)"><g><path d="M 7.9375 0 L 5.859375 0 L 5.328125 -1.515625 L 2.6875 -1.515625 L 2.171875 0 L 0.09375 0 L 2.53125 -7.453125 L 5.484375 -7.453125 Z M 5 -3.0625 L 4.015625 -6.109375 L 3.015625 -3.0625 Z M 5 -3.0625 "/></g></g></g><g fill="#000000" fill-opacity="1"><g transform="translate(264.840808, 115.68261)"><g><path d="M 7.34375 -2.5 C 7.34375 -1.6875 7.109375 -1.066406 6.640625 -0.640625 C 6.085938 -0.160156 5.210938 0.078125 4.015625 0.078125 C 3.054688 0.078125 2.242188 -0.101562 1.578125 -0.46875 C 0.921875 -0.832031 0.53125 -1.410156 0.40625 -2.203125 L 2.671875 -2.203125 C 2.722656 -1.679688 3.175781 -1.421875 4.03125 -1.421875 C 4.539062 -1.421875 4.894531 -1.472656 5.09375 -1.578125 C 5.289062 -1.691406 5.390625 -1.890625 5.390625 -2.171875 C 5.390625 -2.253906 5.359375 -2.328125 5.296875 -2.390625 C 5.242188 -2.460938 5.160156 -2.523438 5.046875 -2.578125 C 4.929688 -2.628906 4.816406 -2.675781 4.703125 -2.71875 C 4.585938 -2.757812 4.4375 -2.800781 4.25 -2.84375 C 4.070312 -2.882812 3.921875 -2.914062 3.796875 -2.9375 C 3.671875 -2.96875 3.507812 -3 3.3125 -3.03125 C 3.113281 -3.0625 2.976562 -3.085938 2.90625 -3.109375 C 2.457031 -3.179688 2.054688 -3.300781 1.703125 -3.46875 C 0.847656 -3.832031 0.421875 -4.394531 0.421875 -5.15625 C 0.421875 -5.925781 0.65625 -6.515625 1.125 -6.921875 C 1.644531 -7.367188 2.507812 -7.59375 3.71875 -7.59375 C 4.65625 -7.59375 5.460938 -7.390625 6.140625 -6.984375 C 6.828125 -6.578125 7.171875 -6.007812 7.171875 -5.28125 L 4.890625 -5.28125 C 4.847656 -5.820312 4.460938 -6.09375 3.734375 -6.09375 C 3.316406 -6.09375 2.984375 -6.035156 2.734375 -5.921875 C 2.492188 -5.804688 2.375 -5.679688 2.375 -5.546875 C 2.375 -5.441406 2.410156 -5.34375 2.484375 -5.25 C 2.554688 -5.15625 2.671875 -5.070312 2.828125 -5 C 2.984375 -4.925781 3.128906 -4.863281 3.265625 -4.8125 C 3.398438 -4.757812 3.585938 -4.707031 3.828125 -4.65625 C 4.066406 -4.601562 4.242188 -4.566406 4.359375 -4.546875 C 4.472656 -4.523438 4.640625 -4.488281 4.859375 -4.4375 C 5.285156 -4.351562 5.6875 -4.238281 6.0625 -4.09375 C 6.914062 -3.75 7.34375 -3.21875 7.34375 -2.5 Z M 7.34375 -2.5 "/></g></g></g><g fill="#000000" fill-opacity="1"><g transform="translate(275.483424, 115.68261)"><g><path d="M 0.59375 -7.453125 L 6.21875 -7.453125 L 6.21875 -5.953125 L 2.5625 -5.953125 L 2.5625 -4.453125 L 5.328125 -4.453125 L 5.328125 -2.921875 L 2.5625 -2.921875 L 2.5625 -1.5 L 6.21875 -1.5 L 6.21875 0 L 0.59375 0 Z M 0.59375 -7.453125 "/></g></g></g></svg>