<svg xmlns="http://www.w3.org/2000/svg" xmlns:xlink="http://www.w3.org/1999/xlink" width="500" zoomAndPan="magnify" viewBox="0 0 375 112.499997" height="150" preserveAspectRatio="xMidYMid meet" version="1.0"><defs><g/><clipPath id="ca34078372"><path d="M 12.03125 12.847656 L 85.203125 12.847656 L 85.203125 98.714844 L 12.03125 98.714844 Z M 12.03125 12.847656 " clip-rule="nonzero"/></clipPath></defs><g clip-path="url(#ca34078372)"><path fill="#000000" d="M 66.464844 41.515625 L 61.601562 41.515625 L 64.492188 38.164062 C 65.15625 38.320312 65.84375 38.40625 66.5625 38.40625 C 71.394531 38.40625 75.339844 34.472656 75.371094 29.632812 C 75.402344 24.757812 71.46875 20.773438 66.5625 20.753906 C 61.726562 20.753906 57.769531 24.683594 57.75 29.527344 C 57.738281 30.773438 57.992188 32.011719 58.488281 33.140625 L 51.375 41.515625 L 48.265625 41.515625 L 39.378906 30.511719 C 40.496094 28.703125 41.109375 26.609375 41.128906 24.464844 C 41.152344 21.375 39.96875 18.46875 37.804688 16.28125 C 35.644531 14.082031 32.761719 12.867188 29.609375 12.847656 C 23.296875 12.847656 18.125 17.992188 18.085938 24.324219 C 18.0625 27.414062 19.246094 30.320312 21.410156 32.519531 C 23.570312 34.71875 26.460938 35.933594 29.609375 35.953125 C 30.429688 35.953125 31.253906 35.871094 32.046875 35.699219 L 36.71875 41.535156 L 30.757812 41.535156 C 22.328125 41.515625 12.046875 44.0625 12.046875 61.515625 L 12.046875 79.960938 C 12.046875 90.277344 20.46875 98.714844 30.769531 98.714844 L 66.464844 98.714844 C 76.753906 98.714844 85.1875 90.277344 85.1875 79.960938 L 85.1875 61.515625 C 85.1875 46.007812 74.898438 41.515625 66.464844 41.515625 Z M 68.34375 87.878906 L 28.890625 87.878906 C 25.988281 87.878906 23.539062 85.425781 23.539062 82.519531 L 23.5625 61.515625 L 23.5625 58.3125 C 23.667969 55.488281 26.0625 53.144531 28.890625 53.144531 L 68.34375 53.144531 C 71.246094 53.144531 73.695312 55.59375 73.695312 58.503906 L 73.671875 79.515625 L 73.695312 79.515625 L 73.695312 82.519531 C 73.695312 85.425781 71.246094 87.878906 68.34375 87.878906 Z M 68.34375 87.878906 " fill-opacity="1" fill-rule="nonzero"/></g><path fill="#ff0a54" d="M 40.65625 76.726562 C 40.632812 73.324219 40.613281 67.742188 40.59375 64.335938 C 40.570312 60.933594 43.113281 59.527344 46.027344 61.207031 C 48.929688 62.898438 53.78125 65.660156 56.683594 67.351562 C 59.585938 69.042969 59.648438 71.820312 56.757812 73.542969 C 53.867188 75.269531 48.980469 78.078125 46.089844 79.792969 C 43.210938 81.515625 40.667969 80.128906 40.65625 76.726562 Z M 40.65625 76.726562 " fill-opacity="1" fill-rule="nonzero"/><g fill="#ff0a54" fill-opacity="1"><g transform="translate(91.454696, 81.147585)"><g><path d="M 17.6875 0.734375 C 13.019531 0.734375 9.269531 -0.445312 6.4375 -2.8125 C 3.601562 -5.1875 2.148438 -8.523438 2.078125 -12.828125 L 11.75 -12.828125 C 11.832031 -11.035156 12.363281 -9.644531 13.34375 -8.65625 C 14.332031 -7.664062 15.765625 -7.171875 17.640625 -7.171875 C 19.390625 -7.171875 20.710938 -7.503906 21.609375 -8.171875 C 22.503906 -8.847656 22.953125 -9.765625 22.953125 -10.921875 C 22.953125 -12.191406 22.375 -13.171875 21.21875 -13.859375 C 20.0625 -14.546875 18.234375 -15.28125 15.734375 -16.0625 C 13.117188 -16.882812 10.960938 -17.707031 9.265625 -18.53125 C 7.566406 -19.351562 6.109375 -20.582031 4.890625 -22.21875 C 3.679688 -23.863281 3.078125 -26.03125 3.078125 -28.71875 C 3.078125 -30.882812 3.679688 -32.816406 4.890625 -34.515625 C 6.109375 -36.210938 7.800781 -37.535156 9.96875 -38.484375 C 12.132812 -39.441406 14.613281 -39.921875 17.40625 -39.921875 C 19.945312 -39.921875 22.316406 -39.453125 24.515625 -38.515625 C 26.722656 -37.585938 28.515625 -36.160156 29.890625 -34.234375 C 31.273438 -32.304688 31.984375 -29.945312 32.015625 -27.15625 L 22.5 -27.15625 C 22.46875 -28.53125 22.03125 -29.679688 21.1875 -30.609375 C 20.351562 -31.546875 19.09375 -32.015625 17.40625 -32.015625 C 15.957031 -32.015625 14.832031 -31.695312 14.03125 -31.0625 C 13.226562 -30.4375 12.828125 -29.582031 12.828125 -28.5 C 12.828125 -27.226562 13.40625 -26.253906 14.5625 -25.578125 C 15.71875 -24.910156 17.523438 -24.1875 19.984375 -23.40625 C 22.597656 -22.613281 24.753906 -21.804688 26.453125 -20.984375 C 28.148438 -20.171875 29.613281 -18.929688 30.84375 -17.265625 C 32.070312 -15.609375 32.6875 -13.414062 32.6875 -10.6875 C 32.6875 -8.601562 32.097656 -6.691406 30.921875 -4.953125 C 29.753906 -3.210938 28.039062 -1.828125 25.78125 -0.796875 C 23.519531 0.222656 20.820312 0.734375 17.6875 0.734375 Z M 17.6875 0.734375 "/></g></g></g><g fill="#ff0a54" fill-opacity="1"><g transform="translate(124.030911, 81.147585)"><g><path d="M 21.71875 -20.875 L 15.0625 -20.875 L 15.0625 -12.703125 C 15.0625 -11.328125 15.441406 -10.242188 16.203125 -9.453125 C 16.972656 -8.671875 18.046875 -8.28125 19.421875 -8.28125 L 21.71875 -8.28125 L 21.71875 0 L 16.578125 0 C 13.097656 0 10.414062 -0.96875 8.53125 -2.90625 C 6.644531 -4.851562 5.703125 -7.539062 5.703125 -10.96875 L 5.703125 -20.875 L 0.953125 -20.875 L 0.953125 -29.109375 L 5.703125 -29.109375 L 5.703125 -36.84375 L 15.0625 -36.84375 L 15.0625 -29.109375 L 21.71875 -29.109375 Z M 21.71875 -20.875 "/></g></g></g><g fill="#ff0a54" fill-opacity="1"><g transform="translate(145.916157, 81.147585)"><g><path d="M 23.453125 -29.453125 L 23.453125 -21.15625 L 19.703125 -21.15625 C 17.796875 -21.15625 16.179688 -20.507812 14.859375 -19.21875 C 13.535156 -17.9375 12.875 -16.289062 12.875 -14.28125 L 12.875 0 L 3.53125 0 L 3.53125 -29.109375 L 12.203125 -29.109375 L 12.203125 -25.75 C 14.441406 -28.21875 17.425781 -29.453125 21.15625 -29.453125 Z M 23.453125 -29.453125 "/></g></g></g><g fill="#ff0a54" fill-opacity="1"><g transform="translate(167.745422, 81.147585)"><g><path d="M 17.25 -29.84375 C 20.007812 -29.84375 22.570312 -29.207031 24.9375 -27.9375 C 27.3125 -26.664062 29.21875 -24.878906 30.65625 -22.578125 C 32.09375 -20.285156 32.8125 -17.6875 32.8125 -14.78125 C 32.8125 -13.925781 32.71875 -12.9375 32.53125 -11.8125 L 10.921875 -11.8125 C 11.296875 -10.0625 12.039062 -8.695312 13.15625 -7.71875 C 14.269531 -6.75 15.671875 -6.265625 17.359375 -6.265625 C 18.703125 -6.265625 19.828125 -6.503906 20.734375 -6.984375 C 21.648438 -7.472656 22.425781 -8.207031 23.0625 -9.1875 L 31.96875 -9.1875 C 30.882812 -6.238281 29.070312 -3.847656 26.53125 -2.015625 C 24 -0.179688 20.90625 0.734375 17.25 0.734375 C 14.445312 0.734375 11.847656 0.0976562 9.453125 -1.171875 C 7.066406 -2.441406 5.15625 -4.234375 3.71875 -6.546875 C 2.28125 -8.859375 1.5625 -11.53125 1.5625 -14.5625 C 1.5625 -17.582031 2.28125 -20.25 3.71875 -22.5625 C 5.15625 -24.875 7.066406 -26.664062 9.453125 -27.9375 C 11.847656 -29.207031 14.445312 -29.84375 17.25 -29.84375 Z M 17.25 -22.78125 C 15.675781 -22.78125 14.335938 -22.34375 13.234375 -21.46875 C 12.140625 -20.59375 11.382812 -19.316406 10.96875 -17.640625 L 23.625 -17.640625 C 23.320312 -19.171875 22.628906 -20.410156 21.546875 -21.359375 C 20.472656 -22.304688 19.039062 -22.78125 17.25 -22.78125 Z M 17.25 -22.78125 "/></g></g></g><g fill="#ff0a54" fill-opacity="1"><g transform="translate(199.929828, 81.147585)"><g><path d="M 25.140625 -29.109375 L 33.765625 -29.109375 L 33.765625 0 L 25.140625 0 L 25.140625 -2.859375 C 22.972656 -0.460938 19.929688 0.734375 16.015625 0.734375 C 13.617188 0.734375 11.320312 0.109375 9.125 -1.140625 C 6.925781 -2.390625 5.132812 -4.179688 3.75 -6.515625 C 2.363281 -8.847656 1.671875 -11.53125 1.671875 -14.5625 C 1.671875 -17.582031 2.363281 -20.257812 3.75 -22.59375 C 5.132812 -24.925781 6.925781 -26.71875 9.125 -27.96875 C 11.320312 -29.21875 13.617188 -29.84375 16.015625 -29.84375 C 19.890625 -29.84375 22.929688 -28.644531 25.140625 -26.25 Z M 17.921875 -7.5625 C 19.929688 -7.5625 21.597656 -8.222656 22.921875 -9.546875 C 24.242188 -10.867188 24.90625 -12.539062 24.90625 -14.5625 C 24.90625 -16.570312 24.242188 -18.238281 22.921875 -19.5625 C 21.597656 -20.882812 19.929688 -21.546875 17.921875 -21.546875 C 15.898438 -21.546875 14.226562 -20.882812 12.90625 -19.5625 C 11.582031 -18.238281 10.921875 -16.570312 10.921875 -14.5625 C 10.921875 -12.539062 11.582031 -10.867188 12.90625 -9.546875 C 14.226562 -8.222656 15.898438 -7.5625 17.921875 -7.5625 Z M 17.921875 -7.5625 "/></g></g></g><g fill="#ff0a54" fill-opacity="1"><g transform="translate(235.080838, 81.147585)"><g><path d="M 38.34375 -29.84375 C 40.507812 -29.84375 42.40625 -29.335938 44.03125 -28.328125 C 45.65625 -27.316406 46.914062 -25.894531 47.8125 -24.0625 C 48.707031 -22.238281 49.15625 -20.132812 49.15625 -17.75 L 49.15625 0 L 39.8125 0 L 39.8125 -16.125 C 39.8125 -17.800781 39.425781 -19.113281 38.65625 -20.0625 C 37.894531 -21.019531 36.859375 -21.5 35.546875 -21.5 C 34.273438 -21.5 33.203125 -21.015625 32.328125 -20.046875 C 31.453125 -19.078125 31.015625 -17.769531 31.015625 -16.125 L 31.015625 0 L 21.671875 0 L 21.671875 -16.125 C 21.671875 -17.800781 21.285156 -19.113281 20.515625 -20.0625 C 19.753906 -21.019531 18.71875 -21.5 17.40625 -21.5 C 16.132812 -21.5 15.0625 -21.015625 14.1875 -20.046875 C 13.3125 -19.078125 12.875 -17.769531 12.875 -16.125 L 12.875 0 L 3.53125 0 L 3.53125 -29.109375 L 12.03125 -29.109375 L 12.03125 -26.140625 C 14.238281 -28.609375 16.960938 -29.84375 20.203125 -29.84375 C 21.992188 -29.84375 23.664062 -29.410156 25.21875 -28.546875 C 26.769531 -27.691406 27.972656 -26.535156 28.828125 -25.078125 C 31.398438 -28.253906 34.570312 -29.84375 38.34375 -29.84375 Z M 38.34375 -29.84375 "/></g></g></g><g fill="#000000" fill-opacity="1"><g transform="translate(274.729146, 81.147585)"><g><path d="M 27.203125 -14.5625 L 42.484375 -39.1875 L 51.171875 -39.1875 L 49.265625 0 L 39.8125 0 L 40.984375 -21.890625 L 27.375 0 L 22.171875 0 L 17.078125 -21.953125 L 9.6875 0 L 0 0 L 13.328125 -39.1875 L 21.5 -39.1875 Z M 27.203125 -14.5625 "/></g></g></g><g fill="#000000" fill-opacity="1"><g transform="translate(327.399923, 81.147585)"><g><path d="M 18.53125 -29.84375 C 21.332031 -29.84375 23.8125 -29.234375 25.96875 -28.015625 C 28.132812 -26.804688 29.816406 -25.15625 31.015625 -23.0625 C 32.210938 -20.976562 32.8125 -18.679688 32.8125 -16.171875 C 32.8125 -14.648438 32.601562 -13.195312 32.1875 -11.8125 L 10.53125 -11.8125 C 10.75 -10.019531 11.378906 -8.644531 12.421875 -7.6875 C 13.472656 -6.738281 14.859375 -6.265625 16.578125 -6.265625 C 17.878906 -6.265625 19.03125 -6.546875 20.03125 -7.109375 C 21.039062 -7.671875 21.769531 -8.363281 22.21875 -9.1875 L 31.40625 -9.1875 C 30.207031 -6.34375 28.253906 -3.976562 25.546875 -2.09375 C 22.847656 -0.207031 19.632812 0.734375 15.90625 0.734375 C 13.175781 0.734375 10.71875 0.15625 8.53125 -1 C 6.351562 -2.164062 4.640625 -3.78125 3.390625 -5.84375 C 2.140625 -7.914062 1.515625 -10.257812 1.515625 -12.875 C 1.515625 -15.820312 2.238281 -18.59375 3.6875 -21.1875 C 5.144531 -23.78125 7.171875 -25.867188 9.765625 -27.453125 C 12.359375 -29.046875 15.28125 -29.84375 18.53125 -29.84375 Z M 18.1875 -22.78125 C 16.550781 -22.78125 15.144531 -22.3125 13.96875 -21.375 C 12.789062 -20.445312 11.90625 -19.203125 11.3125 -17.640625 L 24.078125 -17.640625 C 23.960938 -19.171875 23.398438 -20.410156 22.390625 -21.359375 C 21.378906 -22.304688 19.976562 -22.78125 18.1875 -22.78125 Z M 18.1875 -22.78125 "/></g></g></g><g fill="#000000" fill-opacity="1"><g transform="translate(101.403175, 96.50371)"><g><path d="M 7.328125 -2.484375 C 7.328125 -1.671875 7.085938 -1.054688 6.609375 -0.640625 C 6.066406 -0.160156 5.195312 0.078125 4 0.078125 C 3.050781 0.078125 2.242188 -0.101562 1.578125 -0.46875 C 0.921875 -0.832031 0.53125 -1.40625 0.40625 -2.1875 L 2.671875 -2.1875 C 2.710938 -1.675781 3.160156 -1.421875 4.015625 -1.421875 C 4.523438 -1.421875 4.875 -1.472656 5.0625 -1.578125 C 5.257812 -1.691406 5.359375 -1.890625 5.359375 -2.171875 C 5.359375 -2.242188 5.332031 -2.3125 5.28125 -2.375 C 5.226562 -2.445312 5.144531 -2.507812 5.03125 -2.5625 C 4.914062 -2.613281 4.800781 -2.660156 4.6875 -2.703125 C 4.570312 -2.742188 4.421875 -2.785156 4.234375 -2.828125 C 4.054688 -2.867188 3.90625 -2.898438 3.78125 -2.921875 C 3.664062 -2.953125 3.503906 -2.984375 3.296875 -3.015625 C 3.097656 -3.054688 2.960938 -3.082031 2.890625 -3.09375 C 2.453125 -3.164062 2.054688 -3.285156 1.703125 -3.453125 C 0.847656 -3.816406 0.421875 -4.378906 0.421875 -5.140625 C 0.421875 -5.910156 0.648438 -6.492188 1.109375 -6.890625 C 1.640625 -7.335938 2.503906 -7.5625 3.703125 -7.5625 C 4.628906 -7.5625 5.429688 -7.359375 6.109375 -6.953125 C 6.796875 -6.546875 7.140625 -5.984375 7.140625 -5.265625 L 4.875 -5.265625 C 4.832031 -5.796875 4.445312 -6.0625 3.71875 -6.0625 C 3.300781 -6.0625 2.972656 -6.003906 2.734375 -5.890625 C 2.492188 -5.785156 2.375 -5.660156 2.375 -5.515625 C 2.375 -5.410156 2.410156 -5.3125 2.484375 -5.21875 C 2.554688 -5.132812 2.671875 -5.054688 2.828125 -4.984375 C 2.984375 -4.910156 3.128906 -4.847656 3.265625 -4.796875 C 3.398438 -4.742188 3.582031 -4.691406 3.8125 -4.640625 C 4.050781 -4.585938 4.226562 -4.546875 4.34375 -4.515625 C 4.457031 -4.492188 4.625 -4.460938 4.84375 -4.421875 C 5.269531 -4.335938 5.671875 -4.222656 6.046875 -4.078125 C 6.898438 -3.734375 7.328125 -3.203125 7.328125 -2.484375 Z M 7.328125 -2.484375 "/></g></g></g><g fill="#000000" fill-opacity="1"><g transform="translate(111.998702, 96.50371)"><g><path d="M 4.25 0 L 2.296875 0 L 2.296875 -5.921875 L 0.15625 -5.921875 L 0.15625 -7.421875 L 6.390625 -7.421875 L 6.390625 -5.921875 L 4.25 -5.921875 Z M 4.25 0 "/></g></g></g><g fill="#000000" fill-opacity="1"><g transform="translate(121.415911, 96.50371)"><g><path d="M 7.03125 -4.796875 C 7.03125 -4.367188 6.914062 -3.941406 6.6875 -3.515625 C 6.46875 -3.085938 6.140625 -2.742188 5.703125 -2.484375 L 6.890625 0 L 4.734375 0 L 3.71875 -2.15625 L 2.546875 -2.15625 L 2.546875 0 L 0.59375 0 L 0.59375 -7.421875 L 4.046875 -7.421875 C 5.023438 -7.421875 5.765625 -7.164062 6.265625 -6.65625 C 6.773438 -6.15625 7.03125 -5.535156 7.03125 -4.796875 Z M 2.546875 -3.640625 L 3.953125 -3.640625 C 4.285156 -3.640625 4.554688 -3.742188 4.765625 -3.953125 C 4.984375 -4.160156 5.09375 -4.4375 5.09375 -4.78125 C 5.09375 -5.125 4.984375 -5.398438 4.765625 -5.609375 C 4.554688 -5.816406 4.285156 -5.921875 3.953125 -5.921875 L 2.546875 -5.921875 Z M 2.546875 -3.640625 "/></g></g></g><g fill="#000000" fill-opacity="1"><g transform="translate(131.593326, 96.50371)"><g><path d="M 0.59375 -7.421875 L 6.1875 -7.421875 L 6.1875 -5.921875 L 2.546875 -5.921875 L 2.546875 -4.4375 L 5.3125 -4.4375 L 5.3125 -2.921875 L 2.546875 -2.921875 L 2.546875 -1.5 L 6.1875 -1.5 L 6.1875 0 L 0.59375 0 Z M 0.59375 -7.421875 "/></g></g></g><g fill="#000000" fill-opacity="1"><g transform="translate(141.061223, 96.50371)"><g><path d="M 7.90625 0 L 5.84375 0 L 5.3125 -1.515625 L 2.671875 -1.515625 L 2.15625 0 L 0.09375 0 L 2.53125 -7.421875 L 5.46875 -7.421875 Z M 4.984375 -3.046875 L 4 -6.09375 L 3 -3.046875 Z M 4.984375 -3.046875 "/></g></g></g><g fill="#000000" fill-opacity="1"><g transform="translate(151.922818, 96.50371)"><g><path d="M 4.46875 0 L 2.796875 -5.8125 L 2.421875 0 L 0.46875 0 L 0.703125 -3.71875 C 0.796875 -5.21875 0.863281 -6.453125 0.90625 -7.421875 L 4.21875 -7.421875 L 5.390625 -3.078125 L 6.5625 -7.421875 L 9.875 -7.421875 C 9.925781 -6.453125 10 -5.21875 10.09375 -3.71875 L 10.3125 0 L 8.359375 0 L 8 -5.8125 L 6.3125 0 Z M 4.46875 0 "/></g></g></g><g fill="#000000" fill-opacity="1"><g transform="translate(165.571822, 96.50371)"><g><path d="M 0.609375 -7.421875 L 2.5625 -7.421875 L 2.5625 0 L 0.609375 0 Z M 0.609375 -7.421875 "/></g></g></g><g fill="#000000" fill-opacity="1"><g transform="translate(171.618804, 96.50371)"><g><path d="M 2.546875 -4.515625 L 2.546875 0 L 0.59375 0 L 0.59375 -7.421875 L 2.796875 -7.421875 L 5.71875 -3.015625 L 5.71875 -7.421875 L 7.671875 -7.421875 L 7.671875 0 L 5.53125 0 Z M 2.546875 -4.515625 "/></g></g></g><g fill="#000000" fill-opacity="1"><g transform="translate(182.759141, 96.50371)"><g><path d="M 4.21875 0.078125 C 2.914062 0.078125 1.910156 -0.347656 1.203125 -1.203125 C 0.628906 -1.898438 0.34375 -2.710938 0.34375 -3.640625 C 0.34375 -4.648438 0.625 -5.515625 1.1875 -6.234375 C 1.90625 -7.117188 2.910156 -7.5625 4.203125 -7.5625 C 5.210938 -7.5625 6.039062 -7.320312 6.6875 -6.84375 C 7.332031 -6.363281 7.710938 -5.726562 7.828125 -4.9375 L 5.84375 -4.9375 C 5.84375 -5.300781 5.695312 -5.578125 5.40625 -5.765625 C 5.113281 -5.960938 4.753906 -6.0625 4.328125 -6.0625 C 3.703125 -6.0625 3.207031 -5.835938 2.84375 -5.390625 C 2.476562 -4.941406 2.296875 -4.359375 2.296875 -3.640625 C 2.296875 -2.972656 2.46875 -2.4375 2.8125 -2.03125 C 3.164062 -1.625 3.628906 -1.421875 4.203125 -1.421875 C 4.742188 -1.421875 5.160156 -1.503906 5.453125 -1.671875 C 5.742188 -1.847656 5.960938 -2.148438 6.109375 -2.578125 L 4.78125 -2.578125 L 4.78125 -4.015625 L 7.78125 -4.015625 L 7.78125 0 L 6.359375 0 L 6.3125 -0.609375 C 5.769531 -0.148438 5.070312 0.078125 4.21875 0.078125 Z M 4.21875 0.078125 "/></g></g></g><g fill="#000000" fill-opacity="1"><g transform="translate(193.98816, 96.50371)"><g/></g></g><g fill="#000000" fill-opacity="1"><g transform="translate(199.262278, 96.50371)"><g><path d="M 7.578125 -1.859375 L 8.546875 -7.421875 L 10.5625 -7.421875 L 9.03125 0 L 6.34375 0 L 5.296875 -4.046875 L 4.28125 0 L 1.609375 0 L 0.09375 -7.421875 L 2.09375 -7.421875 L 3.078125 -1.859375 L 4.421875 -7.421875 L 6.15625 -7.421875 Z M 7.578125 -1.859375 "/></g></g></g><g fill="#000000" fill-opacity="1"><g transform="translate(212.771917, 96.50371)"><g><path d="M 0.609375 -7.421875 L 2.5625 -7.421875 L 2.5625 0 L 0.609375 0 Z M 0.609375 -7.421875 "/></g></g></g><g fill="#000000" fill-opacity="1"><g transform="translate(218.818899, 96.50371)"><g><path d="M 4.25 0 L 2.296875 0 L 2.296875 -5.921875 L 0.15625 -5.921875 L 0.15625 -7.421875 L 6.390625 -7.421875 L 6.390625 -5.921875 L 4.25 -5.921875 Z M 4.25 0 "/></g></g></g><g fill="#000000" fill-opacity="1"><g transform="translate(228.236107, 96.50371)"><g><path d="M 2.546875 0 L 0.59375 0 L 0.59375 -7.421875 L 2.546875 -7.421875 L 2.546875 -4.34375 L 5.234375 -4.34375 L 5.234375 -7.421875 L 7.1875 -7.421875 L 7.1875 0 L 5.234375 0 L 5.234375 -2.796875 L 2.546875 -2.796875 Z M 2.546875 0 "/></g></g></g><g fill="#000000" fill-opacity="1"><g transform="translate(238.894981, 96.50371)"><g/></g></g><g fill="#000000" fill-opacity="1"><g transform="translate(244.169099, 96.50371)"><g><path d="M 0.59375 -7.421875 L 6.1875 -7.421875 L 6.1875 -5.921875 L 2.546875 -5.921875 L 2.546875 -4.4375 L 5.3125 -4.4375 L 5.3125 -2.921875 L 2.546875 -2.921875 L 2.546875 -1.5 L 6.1875 -1.5 L 6.1875 0 L 0.59375 0 Z M 0.59375 -7.421875 "/></g></g></g><g fill="#000000" fill-opacity="1"><g transform="translate(253.636995, 96.50371)"><g><path d="M 7.90625 0 L 5.84375 0 L 5.3125 -1.515625 L 2.671875 -1.515625 L 2.15625 0 L 0.09375 0 L 2.53125 -7.421875 L 5.46875 -7.421875 Z M 4.984375 -3.046875 L 4 -6.09375 L 3 -3.046875 Z M 4.984375 -3.046875 "/></g></g></g><g fill="#000000" fill-opacity="1"><g transform="translate(264.498591, 96.50371)"><g><path d="M 7.328125 -2.484375 C 7.328125 -1.671875 7.085938 -1.054688 6.609375 -0.640625 C 6.066406 -0.160156 5.195312 0.078125 4 0.078125 C 3.050781 0.078125 2.242188 -0.101562 1.578125 -0.46875 C 0.921875 -0.832031 0.53125 -1.40625 0.40625 -2.1875 L 2.671875 -2.1875 C 2.710938 -1.675781 3.160156 -1.421875 4.015625 -1.421875 C 4.523438 -1.421875 4.875 -1.472656 5.0625 -1.578125 C 5.257812 -1.691406 5.359375 -1.890625 5.359375 -2.171875 C 5.359375 -2.242188 5.332031 -2.3125 5.28125 -2.375 C 5.226562 -2.445312 5.144531 -2.507812 5.03125 -2.5625 C 4.914062 -2.613281 4.800781 -2.660156 4.6875 -2.703125 C 4.570312 -2.742188 4.421875 -2.785156 4.234375 -2.828125 C 4.054688 -2.867188 3.90625 -2.898438 3.78125 -2.921875 C 3.664062 -2.953125 3.503906 -2.984375 3.296875 -3.015625 C 3.097656 -3.054688 2.960938 -3.082031 2.890625 -3.09375 C 2.453125 -3.164062 2.054688 -3.285156 1.703125 -3.453125 C 0.847656 -3.816406 0.421875 -4.378906 0.421875 -5.140625 C 0.421875 -5.910156 0.648438 -6.492188 1.109375 -6.890625 C 1.640625 -7.335938 2.503906 -7.5625 3.703125 -7.5625 C 4.628906 -7.5625 5.429688 -7.359375 6.109375 -6.953125 C 6.796875 -6.546875 7.140625 -5.984375 7.140625 -5.265625 L 4.875 -5.265625 C 4.832031 -5.796875 4.445312 -6.0625 3.71875 -6.0625 C 3.300781 -6.0625 2.972656 -6.003906 2.734375 -5.890625 C 2.492188 -5.785156 2.375 -5.660156 2.375 -5.515625 C 2.375 -5.410156 2.410156 -5.3125 2.484375 -5.21875 C 2.554688 -5.132812 2.671875 -5.054688 2.828125 -4.984375 C 2.984375 -4.910156 3.128906 -4.847656 3.265625 -4.796875 C 3.398438 -4.742188 3.582031 -4.691406 3.8125 -4.640625 C 4.050781 -4.585938 4.226562 -4.546875 4.34375 -4.515625 C 4.457031 -4.492188 4.625 -4.460938 4.84375 -4.421875 C 5.269531 -4.335938 5.671875 -4.222656 6.046875 -4.078125 C 6.898438 -3.734375 7.328125 -3.203125 7.328125 -2.484375 Z M 7.328125 -2.484375 "/></g></g></g><g fill="#000000" fill-opacity="1"><g transform="translate(275.094116, 96.50371)"><g><path d="M 0.59375 -7.421875 L 6.1875 -7.421875 L 6.1875 -5.921875 L 2.546875 -5.921875 L 2.546875 -4.4375 L 5.3125 -4.4375 L 5.3125 -2.921875 L 2.546875 -2.921875 L 2.546875 -1.5 L 6.1875 -1.5 L 6.1875 0 L 0.59375 0 Z M 0.59375 -7.421875 "/></g></g></g></svg>